<?xml version="1.0" encoding="utf-8"?>
<!-- Generator: Adobe Illustrator 16.0.0, SVG Export Plug-In . SVG Version: 6.00 Build 0)  -->
<!DOCTYPE svg PUBLIC "-//W3C//DTD SVG 1.1//EN" "http://www.w3.org/Graphics/SVG/1.1/DTD/svg11.dtd">
<svg version="1.1" id="Layer_1" xmlns="http://www.w3.org/2000/svg" xmlns:xlink="http://www.w3.org/1999/xlink" x="0px" y="0px"
	 width="40px" height="40px" viewBox="0 0 40 40" enable-background="new 0 0 40 40" xml:space="preserve">
<g transform="translate(90,0)">
	<g>
		<path fill="#FFFFFF" stroke="#010101" stroke-width="1.5" stroke-linejoin="round" d="M-83,35c3.39-0.971,10.11,0.43,13.5-2
			c3.391,2.43,10.109,1.029,13.5,2c0,0,1.65,0.54,3,2c-0.68,0.971-1.65,0.99-3,0.5c-3.391-0.971-10.109,0.46-13.5-1
			c-3.39,1.46-10.11,0.029-13.5,1c-1.354,0.49-2.323,0.471-3-0.5C-84.646,35.061-83,35-83,35z"/>
		<path fill="#FFFFFF" stroke="#010101" stroke-width="1.5" stroke-linejoin="round" d="M-77,31c2.5,2.5,12.5,2.5,15,0
			c0.5-1.5,0-2,0-2c0-2.5-2.5-4-2.5-4c5.5-1.5,6-11.5-5-15.5c-11,4-10.5,14-5,15.5c0,0-2.5,1.5-2.5,4C-77,29-77.5,29.5-77,31z"/>
		<path fill="#FFFFFF" stroke="#010101" stroke-width="1.5" stroke-linejoin="round" d="M-67,7c0,1.381-1.119,2.5-2.5,2.5
			S-72,8.381-72,7s1.119-2.5,2.5-2.5S-67,5.619-67,7z"/>
	</g>
	<path fill="none" stroke="#010101" stroke-width="1.5" stroke-linecap="round" d="M-74.5,25h10 M-77,29h15 M-69.5,14.5v5 M-72,17h5
		"/>
</g>
</svg>
