<?xml version="1.0" encoding="utf-8"?>
<!-- Generator: Adobe Illustrator 16.0.0, SVG Export Plug-In . SVG Version: 6.00 Build 0)  -->
<!DOCTYPE svg PUBLIC "-//W3C//DTD SVG 1.1//EN" "http://www.w3.org/Graphics/SVG/1.1/DTD/svg11.dtd">
<svg version="1.1" id="Layer_1" xmlns="http://www.w3.org/2000/svg" xmlns:xlink="http://www.w3.org/1999/xlink" x="0px" y="0px"
	 width="40px" height="40px" viewBox="0 0 40 40" enable-background="new 0 0 40 40" xml:space="preserve">
<g>
	<circle fill="#252627" cx="3.5" cy="9.687" r="2.75"/>
	<circle fill="#252627" cx="11.5" cy="6.687" r="2.75"/>
	<circle fill="#252627" cx="20" cy="5.687" r="2.75"/>
	<circle fill="#252627" cx="28.5" cy="6.687" r="2.75"/>
	<circle fill="#252627" cx="36.5" cy="9.687" r="2.75"/>
</g>
<path fill="#252627" stroke="#252627" stroke-width="1.5" stroke-linejoin="round" d="M6.5,23.688c8.5-1.5,21-1.5,27,0l2.5-12.5
	l-7.5,11.5L28.2,8.587L23,22.188l-3-14.5l-3,14.5L11.8,8.587l-0.3,14.101L4,11.187L6.5,23.688z"/>
<path fill="#252627" stroke="#252627" stroke-width="1.5" stroke-linejoin="round" d="M6.5,23.688c0,2,1.5,2,2.5,4
	c1,1.5,1,1,0.5,3.5c-1.5,1-1.5,2.5-1.5,2.5c-1.5,1.5,0.5,2.5,0.5,2.5c6.5,1,16.5,1,23,0c0,0,1.5-1,0-2.5c0,0,0.5-1.5-1-2.5
	c-0.5-2.5-0.5-2,0.5-3.5c1-2,2.5-2,2.5-4C25,22.188,15,22.188,6.5,23.688z"/>
<path fill="none" stroke="#252627" stroke-width="1.5" stroke-linejoin="round" d="M8.5,36.188c7.448,2.59,15.553,2.59,23,0"/>
<path fill="none" stroke="#FFFFFF" stroke-width="1.5" stroke-linecap="round" stroke-linejoin="round" d="M8.5,26.688
	c7.448-2.592,15.553-2.592,23,0"/>
<path fill="none" stroke="#FFFFFF" stroke-width="1.5" stroke-linecap="round" stroke-linejoin="round" d="M10,29.188h20"/>
<path fill="none" stroke="#FFFFFF" stroke-width="1.5" stroke-linecap="round" stroke-linejoin="round" d="M9,32.188
	c7.143,2.364,14.857,2.364,22,0"/>
<path fill="none" stroke="#FFFFFF" stroke-width="1.5" stroke-linecap="round" stroke-linejoin="round" d="M8,35.188
	c7.75,2.828,16.25,2.828,24,0"/>
</svg>
