<?xml version="1.0" encoding="utf-8"?>
<!-- Generator: Adobe Illustrator 16.0.0, SVG Export Plug-In . SVG Version: 6.00 Build 0)  -->
<!DOCTYPE svg PUBLIC "-//W3C//DTD SVG 1.1//EN" "http://www.w3.org/Graphics/SVG/1.1/DTD/svg11.dtd">
<svg version="1.1" id="Layer_1" xmlns="http://www.w3.org/2000/svg" xmlns:xlink="http://www.w3.org/1999/xlink" x="0px" y="0px"
	 width="40px" height="40px" viewBox="0 0 40 40" enable-background="new 0 0 40 40" xml:space="preserve">
<path fill="#252627" stroke="#252627" stroke-width="1.5" stroke-linejoin="round" d="M6,36h27v-3H6V36z"/>
<path stroke="#252627" stroke-width="1.5" stroke-linejoin="round" d="M9.5,29l1.5-2.5h17l1.5,2.5H9.5z"/>
<path fill="#252627" stroke="#252627" stroke-width="1.5" stroke-linejoin="round" d="M9,33v-4h21v4H9z"/>
<path fill="#252627" stroke="#252627" stroke-width="1.5" d="M11,26.5v-13h17v13H11z"/>
<path stroke="#252627" stroke-width="1.5" stroke-linejoin="round" d="M11,13.5L8,11h23l-3,2.5H11z"/>
<path fill="#252627" stroke="#252627" stroke-width="1.5" stroke-linejoin="round" d="M8,11V6h4v2h5V6h5v2h5V6h4v5H8z"/>
<path fill="none" stroke="#FFFFFF" stroke-linecap="round" d="M9,32.5h21l0,0"/>
<path fill="none" stroke="#FFFFFF" stroke-linecap="round" d="M10,28.5h19"/>
<path fill="none" stroke="#FFFFFF" stroke-linecap="round" d="M11,26.5h17"/>
<path fill="none" stroke="#FFFFFF" stroke-linecap="round" d="M11,13.5h17"/>
<path fill="none" stroke="#FFFFFF" stroke-linecap="round" d="M8,11h23"/>
</svg>
