<?xml version="1.0" encoding="utf-8"?>
<!-- Generator: Adobe Illustrator 16.0.0, SVG Export Plug-In . SVG Version: 6.00 Build 0)  -->
<!DOCTYPE svg PUBLIC "-//W3C//DTD SVG 1.1//EN" "http://www.w3.org/Graphics/SVG/1.1/DTD/svg11.dtd">
<svg version="1.1" id="Layer_1" xmlns="http://www.w3.org/2000/svg" xmlns:xlink="http://www.w3.org/1999/xlink" x="0px" y="0px"
	 width="40px" height="40px" viewBox="0 0 40 40" enable-background="new 0 0 40 40" xml:space="preserve">
<g transform="translate(0,0)">
	<path fill="none" stroke="#010101" stroke-width="1.5" stroke-linecap="round" d="M20.5,9.63V4"/>
	<path fill="none" stroke="#010101" stroke-width="1.5" stroke-linecap="round" d="M18,6h5"/>
	<path fill="#FFFFFF" stroke="#010101" stroke-width="1.5" d="M20.5,23c0,0,4.5-7.5,3-10.5c0,0-1-2.5-3-2.5s-3,2.5-3,2.5
		C16,15.5,20.5,23,20.5,23"/>
	<path fill="#FFFFFF" stroke="#010101" stroke-width="1.5" stroke-linecap="round" stroke-linejoin="round" d="M9.5,35
		c5.5,3.5,15.5,3.5,21,0v-7c0,0,9-4.5,6-10.5c-4-6.5-13.5-3.5-16,4V25v-3.5c-3.5-7.5-13-10.5-16-4c-3,6,5,10,5,10V35z"/>
	<path fill="none" stroke="#010101" stroke-width="1.5" stroke-linecap="round" stroke-linejoin="round" d="M9.5,28
		c5.5-3,15.5-3,21,0"/>
	<path fill="none" stroke="#010101" stroke-width="1.5" stroke-linecap="round" stroke-linejoin="round" d="M9.5,31.5
		c5.5-3,15.5-3,21,0"/>
	<path fill="none" stroke="#010101" stroke-width="1.5" stroke-linecap="round" stroke-linejoin="round" d="M9.5,35
		c5.5-3,15.5-3,21,0"/>
</g>
</svg>
