<?xml version="1.0" encoding="utf-8"?>
<!-- Generator: Adobe Illustrator 16.0.0, SVG Export Plug-In . SVG Version: 6.00 Build 0)  -->
<!DOCTYPE svg PUBLIC "-//W3C//DTD SVG 1.1//EN" "http://www.w3.org/Graphics/SVG/1.1/DTD/svg11.dtd">
<svg version="1.1" id="Layer_1" xmlns="http://www.w3.org/2000/svg" xmlns:xlink="http://www.w3.org/1999/xlink" x="0px" y="0px"
	 width="40px" height="40px" viewBox="0 0 40 40" enable-background="new 0 0 40 40" xml:space="preserve">
<g transform="translate(135,0)">
	<path fill="#FFFFFF" stroke="#010101" stroke-width="1.5" stroke-linecap="round" stroke-linejoin="round" d="M-115,8
		c10.5,1,16.5,8,16,29h-23c0-9,10-6.5,8-21"/>
	<path fill="#FFFFFF" stroke="#010101" stroke-width="1.5" stroke-linecap="round" stroke-linejoin="round" d="M-113,16
		c0.38,2.91-5.55,7.37-8,9c-3,2-2.82,4.34-5,4c-1.042-0.939,1.41-3.04,0-3c-1,0,0.189,1.23-1,2c-1,0-4.003,1-4-4c0-2,6-12,6-12
		s1.891-1.9,2-3.5c-0.73-0.994-0.5-2-0.5-3c1-1,3,2.5,3,2.5h2c0,0,0.779-1.992,2.5-3c1,0,1,3,1,3"/>
	<path fill="#010101" stroke="#010101" stroke-width="1.5" stroke-linecap="round" stroke-linejoin="round" d="M-127.5,23.5
		c0,0.276-0.224,0.5-0.5,0.5s-0.5-0.224-0.5-0.5s0.224-0.5,0.5-0.5S-127.5,23.224-127.5,23.5z"/>
	<path fill="#010101" stroke="#010101" stroke-width="1.5" stroke-linecap="round" stroke-linejoin="round" d="M-122.066,13.75
		c-0.415,0.717-0.944,1.187-1.184,1.049c-0.239-0.138-0.098-0.832,0.316-1.549c0.415-0.717,0.944-1.187,1.184-1.049
		C-121.511,12.339-121.652,13.033-122.066,13.75z"/>
</g>
</svg>
