<?xml version="1.0" encoding="utf-8"?>
<!-- Generator: Adobe Illustrator 16.0.0, SVG Export Plug-In . SVG Version: 6.00 Build 0)  -->
<!DOCTYPE svg PUBLIC "-//W3C//DTD SVG 1.1//EN" "http://www.w3.org/Graphics/SVG/1.1/DTD/svg11.dtd">
<svg version="1.1" id="Layer_1" xmlns="http://www.w3.org/2000/svg" xmlns:xlink="http://www.w3.org/1999/xlink" x="0px" y="0px"
	 width="40px" height="40px" viewBox="0 0 40 40" enable-background="new 0 0 40 40" xml:space="preserve">
<g transform="translate(225,0)">
	<path fill="#FFFFFF" stroke="#010101" stroke-width="1.5" stroke-linecap="round" d="M-205,6c-2.21,0-4,1.79-4,4
		c0,0.89,0.29,1.71,0.779,2.38c-1.949,1.12-3.279,3.21-3.279,5.62c0,2.03,0.939,3.84,2.41,5.029c-3,1.061-7.41,5.551-7.41,13.471h23
		c0-7.92-4.41-12.41-7.41-13.471c1.471-1.189,2.41-3,2.41-5.029c0-2.41-1.33-4.5-3.279-5.62C-201.29,11.71-201,10.89-201,10
		C-201,7.79-202.79,6-205,6z"/>
</g>
</svg>
