<?xml version="1.0" encoding="utf-8"?>
<!-- Generator: Adobe Illustrator 16.0.0, SVG Export Plug-In . SVG Version: 6.00 Build 0)  -->
<!DOCTYPE svg PUBLIC "-//W3C//DTD SVG 1.1//EN" "http://www.w3.org/Graphics/SVG/1.1/DTD/svg11.dtd">
<svg version="1.1" id="Layer_1" xmlns="http://www.w3.org/2000/svg" xmlns:xlink="http://www.w3.org/1999/xlink" x="0px" y="0px"
	 width="40px" height="40px" viewBox="0 0 40 40" enable-background="new 0 0 40 40" xml:space="preserve">
<g transform="translate(45,0)">
	<path fill="#FFFFFF" stroke="#010101" stroke-width="1.5" stroke-linecap="round" stroke-linejoin="round" d="M-39,11
		c0,1.104-0.896,2-2,2s-2-0.896-2-2s0.896-2,2-2S-39,9.896-39,11z"/>
	<path fill="#FFFFFF" stroke="#010101" stroke-width="1.5" stroke-linecap="round" stroke-linejoin="round" d="M-22.5,6.5
		c0,1.104-0.896,2-2,2s-2-0.896-2-2s0.896-2,2-2S-22.5,5.396-22.5,6.5z"/>
	<path fill="#FFFFFF" stroke="#010101" stroke-width="1.5" stroke-linecap="round" stroke-linejoin="round" d="M-6,11
		c0,1.104-0.896,2-2,2s-2-0.896-2-2s0.896-2,2-2S-6,9.896-6,11z"/>
	<path fill="#FFFFFF" stroke="#010101" stroke-width="1.5" stroke-linecap="round" stroke-linejoin="round" d="M-31,7.5
		c0,1.104-0.896,2-2,2s-2-0.896-2-2s0.896-2,2-2S-31,6.396-31,7.5z"/>
	<path fill="#FFFFFF" stroke="#010101" stroke-width="1.5" stroke-linecap="round" stroke-linejoin="round" d="M-14,8
		c0,1.104-0.896,2-2,2s-2-0.896-2-2s0.896-2,2-2S-14,6.896-14,8z"/>
	<path fill="#FFFFFF" stroke="#010101" stroke-width="1.5" stroke-linejoin="round" d="M-38,25c8.5-1.5,21-1.5,27,0l2-12l-7,11V10
		l-5.5,13.5l-3-15l-3,15l-5.5-14V24l-7-11L-38,25z"/>
	<path fill="#FFFFFF" stroke="#010101" stroke-width="1.5" stroke-linejoin="round" d="M-38,25c0,2,1.5,2,2.5,4c1,1.5,1,1,0.5,3.5
		c-1.5,1-1.5,2.5-1.5,2.5c-1.5,1.5,0.5,2.5,0.5,2.5c6.5,1,16.5,1,23,0c0,0,1.5-1,0-2.5c0,0,0.5-1.5-1-2.5c-0.5-2.5-0.5-2,0.5-3.5
		c1-2,2.5-2,2.5-4C-19.5,23.5-29.5,23.5-38,25z"/>
	<path fill="none" stroke="#010101" stroke-width="1.5" stroke-linecap="round" stroke-linejoin="round" d="M-35.5,29
		c3.5-1,18.5-1,22,0"/>
	<path fill="none" stroke="#010101" stroke-width="1.5" stroke-linecap="round" stroke-linejoin="round" d="M-35,32.5c6-1,15-1,21,0
		"/>
</g>
</svg>
